P2
# Hse
64 64
255
183
185
179
195
184
180
184
199
201
201
204
205
205
202
206
207
205
206
203
204
204
208
205
206
205
204
205
202
205
203
203
207
204
204
203
202
202
202
202
202
203
203
203
204
204
204
204
205
205
204
205
205
206
207
207
208
209
210
211
213
214
216
220
194
158
163
148
137
145
152
150
166
163
178
195
194
196
197
197
197
198
198
198
198
198
198
198
198
198
198
198
198
198
198
198
198
197
196
195
195
194
194
195
195
196
196
197
198
198
199
199
200
200
200
200
200
201
202
203
204
205
207
209
211
212
215
220
188
131
127
125
127
140
130
136
125
116
155
175
179
197
197
198
196
197
198
199
198
198
198
198
198
198
198
198
198
198
198
198
198
198
197
196
196
196
196
196
197
197
197
198
199
199
199
199
200
200
201
200
201
201
202
203
204
205
207
209
210
212
215
219
188
118
114
98
118
127
124
135
121
134
133
145
178
188
193
193
191
197
198
198
198
198
198
198
198
198
198
198
199
198
198
198
198
198
198
197
197
197
197
197
197
198
198
199
199
200
199
200
201
201
201
201
201
201
202
203
204
205
207
208
210
212
215
219
188
122
114
104
119
115
119
145
123
122
131
151
145
169
170
184
180
188
198
198
199
198
198
198
198
198
198
199
198
198
198
198
198
199
197
197
197
197
198
198
198
199
199
200
200
200
200
200
201
201
201
201
202
202
202
202
203
204
206
208
210
212
215
219
189
148
143
137
146
137
108
122
127
132
117
125
132
140
130
142
178
182
193
197
199
198
199
199
198
198
198
199
199
198
198
199
199
199
198
198
198
198
198
198
198
199
199
200
200
201
201
201
201
201
201
201
202
202
202
202
202
204
205
207
209
211
214
219
189
158
160
155
130
144
120
107
108
109
126
133
153
130
127
134
158
160
171
192
194
199
199
198
198
198
198
199
199
199
199
199
199
199
199
198
198
198
198
199
199
199
199
200
200
201
201
201
201
201
201
202
202
202
202
202
202
203
205
206
208
211
214
219
189
154
165
141
135
132
152
146
99
106
108
137
129
138
132
128
141
143
151
178
184
198
199
199
199
199
199
199
198
199
199
199
199
199
199
199
199
199
199
199
199
200
199
200
200
201
201
201
201
201
202
202
202
202
203
203
203
204
205
206
208
210
213
218
189
156
162
183
141
147
146
157
149
133
115
124
143
139
124
118
127
130
154
174
191
196
198
199
200
200
200
199
199
199
200
200
200
200
200
200
199
198
196
198
199
199
200
200
201
201
201
202
202
202
202
202
203
203
204
204
204
204
205
206
208
210
213
218
190
147
152
186
149
162
159
142
140
148
134
139
138
125
134
120
142
129
139
147
175
175
195
200
200
200
200
200
200
200
200
200
200
201
199
199
195
186
185
189
188
190
191
197
199
201
202
202
203
203
203
204
204
204
204
204
204
204
205
206
208
210
213
218
190
130
157
176
127
156
180
148
132
160
133
129
148
141
140
137
145
134
143
129
130
132
191
201
201
201
201
201
201
201
202
198
188
186
187
189
181
171
177
182
182
186
179
185
190
200
202
203
203
203
204
204
204
204
204
204
204
204
205
206
208
210
213
217
190
127
117
149
163
179
189
154
136
153
128
136
145
135
142
134
134
125
130
114
100
98
198
202
201
202
202
202
202
203
200
195
179
176
182
175
171
168
169
173
172
184
173
183
185
194
201
203
203
203
204
204
204
204
205
205
205
205
205
206
208
210
213
217
190
105
122
129
172
177
169
143
161
138
160
156
157
146
138
143
135
127
123
114
123
115
183
202
202
202
202
203
203
204
198
185
183
177
180
172
171
172
170
164
169
185
164
173
174
185
197
201
203
204
204
204
204
205
205
205
205
205
206
206
208
210
212
217
190
113
124
124
123
122
161
147
156
141
133
167
112
149
164
174
163
146
107
116
129
127
142
161
172
184
198
203
203
201
195
181
184
173
178
181
174
174
173
164
172
175
157
173
172
177
183
197
202
204
203
203
204
205
205
205
205
206
206
207
208
210
213
217
191
114
117
121
120
144
156
150
187
142
152
126
120
156
143
134
198
148
136
108
124
137
156
160
165
158
150
152
169
181
184
189
179
171
180
185
167
165
161
140
157
154
159
174
174
168
174
159
185
200
199
199
200
197
200
199
201
204
206
207
208
210
211
216
190
81
117
117
134
144
147
176
194
145
152
148
132
134
143
148
184
159
173
149
106
128
152
153
153
156
160
161
164
162
159
159
161
160
156
175
156
139
152
136
158
146
170
172
171
150
146
103
107
176
192
194
192
188
192
191
192
198
205
206
204
203
202
210
184
88
112
117
130
124
120
167
172
136
162
176
169
157
147
153
143
149
169
143
129
126
150
152
159
155
159
159
163
169
169
163
166
168
166
176
161
145
153
157
165
148
164
170
173
152
108
106
109
161
182
188
182
189
195
190
189
195
198
201
196
187
187
196
163
93
100
126
123
131
140
170
154
196
174
192
148
147
152
150
128
136
123
142
169
142
141
150
160
154
157
165
162
163
171
165
160
165
172
172
165
149
147
188
152
160
169
166
163
136
104
95
99
136
164
163
174
184
190
181
177
181
187
186
186
172
172
179
153
77
142
136
96
150
140
140
183
198
187
202
148
148
156
119
118
124
89
116
134
133
131
140
150
160
160
163
164
158
157
160
165
163
164
166
172
162
151
175
151
163
175
168
141
129
90
76
94
107
118
144
182
187
183
173
181
188
189
188
184
160
158
162
145
92
99
102
118
131
144
123
190
170
152
169
148
139
111
128
109
120
111
135
133
141
148
152
116
127
151
161
161
159
160
160
162
165
165
162
170
174
168
160
164
141
138
155
139
107
95
72
99
83
100
160
180
178
175
172
175
183
181
184
170
161
146
151
137
106
117
121
120
128
125
165
157
176
185
151
127
149
126
115
107
108
111
118
139
132
140
183
131
114
139
155
160
162
163
160
160
162
167
168
167
169
174
165
158
124
116
122
137
108
99
101
112
76
87
164
181
172
172
156
133
161
174
175
145
143
127
132
125
119
122
131
133
111
123
112
143
176
189
160
155
131
127
138
127
100
106
125
111
135
172
148
184
174
136
150
160
160
167
163
169
170
164
169
171
174
171
172
166
128
118
128
126
112
108
121
122
111
105
154
187
170
166
133
114
157
149
164
125
135
122
121
113
120
129
131
119
108
122
160
148
139
145
143
172
168
140
136
137
148
150
131
120
148
178
189
202
208
191
137
146
162
163
165
166
168
166
170
170
172
169
170
173
169
153
149
148
148
145
141
136
135
165
152
178
149
134
118
113
140
126
138
114
117
125
124
107
86
151
126
112
117
156
170
163
118
94
149
168
158
150
149
152
139
112
113
133
120
128
188
212
201
209
186
158
165
164
163
165
165
173
170
172
168
168
168
175
174
170
142
139
130
131
132
133
135
202
181
133
123
126
120
120
115
117
116
108
112
117
126
110
86
119
115
174
134
186
157
162
145
121
132
131
136
164
140
114
124
120
122
122
119
159
125
185
189
196
200
194
153
145
148
149
157
160
167
169
172
160
162
162
167
177
173
145
129
127
131
133
161
219
209
105
112
124
123
118
111
120
118
119
130
132
129
110
62
143
129
140
155
161
175
166
133
157
118
117
131
155
133
124
123
108
102
119
110
133
125
183
190
202
209
183
134
121
127
126
126
124
129
133
144
152
158
160
158
160
164
173
147
131
132
135
196
214
218
156
117
126
127
114
110
119
115
116
139
112
108
105
94
126
113
127
136
118
118
126
141
110
133
114
118
141
128
107
114
134
153
117
113
122
122
158
207
208
218
192
149
147
140
134
134
134
127
118
123
121
118
112
122
129
130
133
158
129
130
155
213
215
219
192
88
93
113
118
112
104
114
125
133
104
116
112
113
111
116
133
142
124
98
95
105
108
111
125
126
166
156
113
73
127
164
153
135
163
135
37
189
196
201
196
103
124
147
133
117
126
136
165
136
106
164
163
126
139
145
145
179
170
170
195
214
200
212
217
105
109
109
120
114
109
113
124
120
114
111
99
107
81
100
161
160
135
91
115
110
113
118
162
123
161
184
142
99
144
155
171
189
144
147
34
192
194
199
188
88
163
164
148
130
162
153
184
156
151
215
198
143
176
190
163
214
219
219
215
213
212
213
220
157
107
104
107
111
111
119
124
104
113
102
91
100
97
77
178
178
135
108
111
89
78
150
176
154
177
194
137
80
167
170
156
178
167
117
35
190
192
180
178
78
147
167
152
126
155
153
185
177
201
220
196
147
176
190
167
170
212
220
214
207
207
211
217
179
115
99
100
118
103
126
109
94
112
96
77
93
62
93
184
185
98
81
128
93
76
132
184
187
193
197
123
80
162
199
182
173
146
104
42
191
185
188
167
65
158
173
156
121
168
155
186
188
217
219
194
159
182
192
171
163
200
225
207
81
80
100
181
155
101
91
103
141
120
127
106
102
111
102
96
86
82
108
171
127
165
159
172
175
176
176
198
191
197
186
115
73
202
202
196
187
175
112
60
207
201
179
157
83
187
173
162
131
192
157
191
193
218
218
194
167
189
195
178
167
207
224
198
92
109
140
209
160
121
109
123
127
125
138
107
107
107
105
93
71
56
78
187
127
156
182
195
191
183
181
194
192
195
186
117
98
194
191
190
203
206
118
71
197
195
200
139
92
159
203
204
205
206
207
213
173
146
205
212
157
88
192
215
149
91
179
194
98
138
200
220
143
90
109
99
134
107
132
124
124
112
121
98
61
51
78
98
187
199
197
199
189
200
193
159
157
177
197
155
140
187
179
192
214
211
128
69
179
199
204
76
32
78
194
205
207
207
210
215
100
79
141
203
88
84
148
215
103
67
99
187
116
182
223
220
143
108
118
78
78
72
93
127
95
118
114
89
54
43
90
178
196
202
209
148
151
203
200
152
165
179
161
176
179
149
151
169
170
178
199
210
205
204
177
32
26
33
177
205
208
209
210
188
76
73
69
171
73
101
146
171
92
85
79
128
101
208
214
219
126
91
120
94
91
72
74
128
96
111
100
88
77
104
67
195
184
167
160
79
39
149
153
151
126
109
69
70
130
69
42
81
120
136
165
160
163
186
125
33
31
55
123
157
164
149
165
101
86
90
89
97
88
96
145
70
77
70
63
64
65
145
160
166
125
121
135
123
118
115
94
114
114
114
117
115
43
84
44
53
65
60
67
98
42
56
43
62
38
60
48
59
69
56
45
28
45
59
44
50
75
63
35
38
37
45
58
56
54
162
135
68
61
58
58
66
63
107
140
103
102
106
128
133
134
143
145
145
146
149
147
147
147
142
141
144
147
146
147
132
52
37
28
27
25
23
53
151
55
62
67
113
66
70
64
34
40
62
59
35
31
29
25
63
92
78
42
40
53
72
68
69
69
114
135
143
142
139
138
143
142
137
137
142
143
141
144
142
144
144
141
142
140
141
141
140
140
142
143
146
149
152
160
143
94
51
30
31
30
29
54
144
61
47
81
70
81
101
63
31
31
37
57
72
34
35
52
80
115
133
137
132
140
147
148
149
147
144
135
136
139
138
138
139
142
141
139
136
135
138
141
141
138
142
141
137
141
141
143
142
143
143
139
138
140
152
159
143
126
77
92
89
55
65
92
91
95
93
100
79
72
91
108
121
113
127
119
128
116
123
135
147
149
148
153
158
150
143
148
144
140
144
143
149
144
149
137
135
137
137
141
139
139
140
141
138
139
137
138
137
139
137
139
140
146
144
144
132
82
133
158
145
119
103
112
118
124
138
142
143
143
141
142
142
139
139
140
142
137
134
137
138
140
142
144
144
167
151
132
129
132
119
118
115
111
120
120
114
115
136
154
165
153
140
141
144
145
143
141
140
143
141
141
139
138
139
137
141
145
149
156
145
65
107
140
144
135
144
143
143
144
147
145
141
143
145
139
137
138
137
136
139
143
144
137
131
128
134
138
180
169
137
129
138
126
125
148
139
118
120
133
136
129
124
145
160
172
167
147
145
145
145
140
139
137
135
136
138
145
147
147
142
145
142
144
139
58
137
160
142
155
145
136
142
147
163
151
147
144
152
146
141
140
139
140
140
145
143
139
136
137
143
175
163
143
145
142
118
135
138
145
131
110
113
141
149
148
131
105
117
137
159
174
153
135
132
133
138
138
135
136
136
137
134
137
136
142
140
148
149
69
122
155
139
157
187
167
165
184
189
183
191
179
182
176
178
176
177
178
159
133
130
139
144
125
159
158
148
112
113
105
133
145
174
110
127
107
114
141
149
150
144
121
106
112
128
140
141
158
154
162
149
150
150
141
130
130
134
135
132
133
131
132
135
81
93
149
140
145
167
162
171
190
188
193
179
174
175
175
174
175
176
176
176
172
172
172
171
172
175
177
183
175
169
168
161
158
155
151
150
150
149
158
158
168
161
146
152
152
154
157
158
158
160
163
165
168
173
157
139
121
125
127
123
117
125
131
139
89
58
139
138
130
135
138
147
174
170
158
156
152
161
162
169
174
175
173
172
171
170
170
171
174
177
186
190
188
183
188
177
174
168
166
169
168
170
172
172
175
164
170
170
170
173
178
185
189
194
197
198
199
211
124
103
83
129
162
174
128
135
154
137
123
64
145
167
141
137
141
136
138
142
139
145
151
148
160
142
76
78
88
125
147
146
144
140
146
148
190
202
190
160
158
145
146
140
142
146
147
151
153
142
140
156
156
152
150
156
167
175
180
187
196
205
207
202
99
68
66
150
150
155
139
118
115
154
162
119
141
158
121
126
125
123
123
130
135
135
111
104
146
76
73
101
102
81
125
147
142
138
144
147
182
196
191
162
158
142
141
139
138
128
135
139
127
120
141
141
132
125
118
123
136
145
150
157
164
167
169
154
101
111
111
102
143
189
185
126
120
133
158
97
116
118
120
129
133
126
124
124
124
128
126
106
95
75
100
144
204
160
75
112
107
102
106
109
113
123
124
124
121
104
107
113
120
120
127
134
119
113
131
129
126
122
129
134
143
150
153
157
156
153
153
181
147
81
61
109
105
137
146
126
110
115
97
53
64
106
120
136
132
123
130
131
129
127
128
130
132
135
123
165
198
158
85
87
110
85
85
82
90
99
98
99
95
81
93
87
90
103
99
109
109
93
126
170
179
86
45
75
91
99
107
111
114
111
106
125
62
33
52
80
119
111
102
98
94
107
104
56
56
91
126
133
132
128
132
133
125
128
125
123
170
170
124
164
158
137
99
53
78
88
56
52
59
66
67
62
54
56
75
67
60
75
76
117
132
140
146
168
164
118
34
34
43
61
63
66
60
59
50
44
26
25
36
96
103
99
95
86
98
105
115
69
60
81
127
130
130
133
139
142
143
145
142
151
180
184
151
124
116
103
99
78
110
90
63
56
71
70
59
60
54
44
70
49
36
92
103
125
140
141
150
151
134
87
33
29
24
25
24
28
27
28
25
25
30
84
128
133
130
121
115
117
123
139
150
109
87
98
129
132
126
136
138
144
142
156
164
166
166
156
151
139
152
152
154
142
150
139
128
128
129
125
125
128
127
128
133
117
113
107
134
149
163
156
113
95
99
37
40
86
84
99
113
117
122
126
128
131
140
146
146
144
141
137
138
140
145
158
161
131
102
95
159
163
166
171
173
176
168
171
174
177
176
176
167
171
173
174
176
173
178
177
173
175
171
172
174
177
177
182
183
175
167
177
183
190
192
193
179
168
171
165
172
177
178
184
187
187
187
189
189
189
189
189
187
189
189
183
183
184
185
188
191
186
172
153
207
221
221
221
221
221
221
221
221
221
221
221
221
221
221
221
221
221
221
221
221
221
221
221
221
221
221
221
221
221
221
221
221
221
221
221
221
221
222
221
222
222
222
222
222
222
222
222
222
222
222
222
222
222
222
222
222
222
222
222
223
224
227
203
201
215
215
214
213
213
213
213
215
213
212
209
208
208
209
210
210
210
209
210
209
208
209
210
208
207
207
207
207
209
210
210
211
212
213
214
214
213
213
213
213
212
213
213
212
212
213
213
212
213
214
214
214
212
210
210
212
212
212
212
212
214
217
195
195
209
207
207
206
206
205
204
207
206
201
197
194
193
194
196
196
196
194
195
195
194
196
196
193
191
188
189
191
195
195
196
199
200
200
202
202
201
201
199
200
200
201
201
200
202
203
204
204
205
206
206
207
201
197
196
199
200
201
198
198
199
203
179
196
211
211
208
209
206
205
202
206
204
201
195
194
194
194
195
196
196
195
194
197
194
193
194
192
190
188
189
191
194
197
195
197
198
200
204
203
200
202
201
200
200
201
201
200
200
204
205
207
207
207
207
206
200
196
195
197
196
197
197
196
198
203
179
196
211
210
210
209
204
203
199
204
205
202
195
192
192
193
193
194
196
194
195
199
194
193
197
194
190
188
189
191
193
197
197
197
200
201
201
202
201
202
204
201
202
202
201
201
200
202
205
206
207
207
207
204
199
196
195
196
190
186
188
190
182
167
180
197
212
209
208
209
205
204
201
205
206
203
197
192
192
193
195
194
193
193
195
199
196
193
197
195
192
192
193
194
195
197
198
199
201
202
203
204
202
202
201
199
201
203
201
200
200
201
203
205
205
205
204
201
197
194
194
195
186
186
191
189
193
177
180
198
211
211
209
208
205
201
199
204
203
200
194
192
192
192
194
192
192
192
196
198
197
195
196
194
191
192
192
192
195
197
199
200
200
203
203
205
203
201
201
200
201
203
203
202
201
200
203
205
205
205
202
201
197
195
193
193
187
188
189
187
191
183
178
199
211
212
212
209
205
203
200
204
202
199
195
193
190
189
192
193
193
193
195
197
193
191
194
193
191
191
191
190
194
195
199
201
202
203
203
204
202
200
200
201
201
203
203
202
202
201
202
203
204
203
199
197
196
195
193
191
186
187
190
190
191
184
179
198
211
212
212
209
206
203
199
203
203
199
197
194
191
190
189
191
194
193
195
193
191
191
193
192
190
188
188
191
190
195
199
200
200
202
200
200
198
198
198
200
201
203
203
203
201
201
201
203
204
203
200
199
198
194
194
193
187
186
189
189
192
180
175
187
201
201
201
201
199
194
189
194
196
191
188
185
185
182
182
184
187
185
184
181
180
183
184
184
182
183
182
182
183
186
188
192
191
194
193
192
189
189
189
191
192
194
195
194
194
194
193
195
196
194
194
193
191
188
187
186
180
179
180
180
181
180
165
